<svg width="80" height="80" viewBox="0 0 80 80" fill="none" xmlns="http://www.w3.org/2000/svg">
<mask id="mask0_1133_6377" style="mask-type:alpha" maskUnits="userSpaceOnUse" x="0" y="0" width="80" height="80">
<rect width="80" height="80" fill="#D9D9D9"/>
</mask>
<g mask="url(#mask0_1133_6377)">
<path d="M13.3334 66.6666C11.5001 66.6666 9.93064 66.0139 8.62508 64.7083C7.31953 63.4028 6.66675 61.8333 6.66675 60V20C6.66675 18.1666 7.31953 16.5972 8.62508 15.2916C9.93064 13.9861 11.5001 13.3333 13.3334 13.3333H66.6667C68.5001 13.3333 70.0695 13.9861 71.3751 15.2916C72.6806 16.5972 73.3334 18.1666 73.3334 20V60C73.3334 61.8333 72.6806 63.4028 71.3751 64.7083C70.0695 66.0139 68.5001 66.6666 66.6667 66.6666H13.3334ZM40.0001 43.3333L13.3334 26.6666V60H66.6667V26.6666L40.0001 43.3333ZM40.0001 36.6666L66.6667 20H13.3334L40.0001 36.6666ZM13.3334 26.6666V20V60V26.6666Z" fill="#F5FAFF"/>
</g>
</svg>
