<svg xmlns="http://www.w3.org/2000/svg" width="24" height="25" viewBox="0 0 24 25" fill="none">
<mask id="mask0_1295_4547" style="mask-type:alpha" maskUnits="userSpaceOnUse" x="0" y="0" width="24" height="25">
<rect y="0.5" width="24" height="24" fill="#D9D9D9"/>
</mask>
<g mask="url(#mask0_1295_4547)">
<path d="M12 19.5C11.4477 19.5 11 19.0523 11 18.5V13.5H6C5.44772 13.5 5 13.0523 5 12.5C5 11.9477 5.44772 11.5 6 11.5H11V6.5C11 5.94772 11.4477 5.5 12 5.5C12.5523 5.5 13 5.94772 13 6.5V11.5H18C18.5523 11.5 19 11.9477 19 12.5C19 13.0523 18.5523 13.5 18 13.5H13V18.5C13 19.0523 12.5523 19.5 12 19.5Z" fill="#F5FAFF"/>
</g>
</svg>