<svg xmlns="http://www.w3.org/2000/svg" width="25" height="24" viewBox="0 0 25 24" fill="none">
  <mask id="mask0_1287_8915" style="mask-type:luminance" maskUnits="userSpaceOnUse" x="0" y="0" width="25" height="24">
    <path d="M0.666748 0H24.6667V24H0.666748V0Z" fill="white"/>
  </mask>
  <g mask="url(#mask0_1287_8915)">
    <path fill-rule="evenodd" clip-rule="evenodd" d="M24.6667 12C24.6667 18.627 19.2937 24 12.6667 24C6.03975 24 0.666748 18.627 0.666748 12C0.666748 5.373 6.03975 0 12.6667 0C19.2937 0 24.6667 5.373 24.6667 12ZM13.0967 8.859C11.9297 9.344 9.59675 10.349 6.09875 11.873C5.53075 12.099 5.23275 12.32 5.20575 12.536C5.15975 12.902 5.61775 13.046 6.23975 13.241C6.32475 13.268 6.41275 13.295 6.50275 13.325C7.11575 13.524 7.93975 13.757 8.36775 13.766C8.75675 13.774 9.19075 13.614 9.66975 13.286C12.9377 11.079 14.6247 9.964 14.7307 9.94C14.8057 9.923 14.9097 9.901 14.9797 9.964C15.0497 10.026 15.0427 10.144 15.0357 10.176C14.9897 10.369 13.1957 12.038 12.2657 12.902C11.9757 13.171 11.7707 13.362 11.7287 13.406C11.6347 13.503 11.5387 13.596 11.4467 13.685C10.8767 14.233 10.4507 14.645 11.4707 15.317C11.9607 15.64 12.3527 15.907 12.7437 16.173C13.1707 16.464 13.5967 16.754 14.1487 17.116C14.2887 17.208 14.4227 17.303 14.5537 17.396C15.0507 17.751 15.4977 18.069 16.0497 18.019C16.3697 17.989 16.7017 17.688 16.8697 16.789C17.2667 14.663 18.0487 10.059 18.2297 8.161C18.2408 8.00341 18.2341 7.84509 18.2097 7.689C18.1952 7.56293 18.1338 7.44693 18.0377 7.364C17.8947 7.247 17.6727 7.222 17.5727 7.224C17.1217 7.232 16.4297 7.473 13.0967 8.859Z" fill="#E7EFF8"/>
  </g>
</svg>